<svg width="67" height="57" viewBox="0 0 67 57" fill="none" xmlns="http://www.w3.org/2000/svg">
<path d="M67 38.5C67 48.4411 58.9411 56.5 49 56.5L22 56.5C19.2386 56.5 17 54.2614 17 51.5L17 17.5C17 11.9772 21.4772 7.5 27 7.5L62 7.5C64.7614 7.5 67 9.73858 67 12.5L67 38.5Z" fill="#E8F5E9"/>
<path d="M31.4211 25.4076C31.0492 25.4076 30.7039 25.2973 30.3972 25.1198V25.1245C30.3972 25.7559 30.1697 26.3489 29.7571 26.793C29.3444 27.2383 28.7953 27.4837 28.2109 27.4837C27.8335 27.4837 27.4838 27.3706 27.1738 27.1884C27.1425 27.766 26.9285 28.3059 26.5468 28.7182C26.1342 29.1635 25.5851 29.4089 25.0002 29.4089C23.8383 29.4089 22.8948 28.4234 22.8268 27.188C22.4672 27.3977 22.0608 27.5076 21.6415 27.4786C20.4985 27.3977 19.6034 26.332 19.6034 25.0519V14.4408L18.4837 16.5341C18.0572 17.3347 17.2589 17.8318 16.3993 17.8318C15.9805 17.8318 15.5668 17.7132 15.2003 17.4867C14.744 17.2012 14.4176 16.743 14.2819 16.1948C14.1454 15.6462 14.216 15.0726 14.4798 14.5809C14.4802 14.5809 18.1434 7.73558 18.3669 7.3151C18.3935 7.25188 18.4692 7.06851 18.5336 6.91223C18.5951 6.76302 18.6478 6.60988 18.6984 6.45596C19.8031 3.09049 22.5386 0.999945 25.8375 0.999945C30.1216 0.999945 33.6069 5.0781 33.6069 10.0909L33.6072 23.0481C33.6072 23.6788 33.3802 24.2713 32.9679 24.717C32.5552 25.1623 32.0061 25.4077 31.421 25.4077L31.4211 25.4076ZM25.8376 2.25351C23.0029 2.25351 20.7435 3.98128 19.7934 6.87519C19.7326 7.05896 19.6693 7.24272 19.5954 7.42178C19.3811 7.94049 19.3811 7.94049 19.3207 8.01509L19.3127 8.00763C19.0136 8.61665 18.125 10.2772 15.4857 15.2083C15.3773 15.4105 15.3485 15.6453 15.4038 15.8699C15.4599 16.0945 15.5942 16.2838 15.7801 16.3996C16.3572 16.7573 17.1476 16.5264 17.4765 15.908L19.6813 11.7889C19.8131 11.5435 20.0794 11.423 20.3349 11.4976C20.5889 11.571 20.7654 11.8196 20.7654 12.1031V25.0523C20.7654 25.6632 21.1926 26.1906 21.7177 26.2279C22.0204 26.2451 22.3028 26.1356 22.515 25.907C22.7078 25.6989 22.8141 25.4217 22.8141 25.1253V16.6563C22.8141 16.31 23.0743 16.0292 23.3952 16.0292C23.7161 16.0292 23.9763 16.3096 23.9763 16.6563L23.976 27.0502C23.976 27.6597 24.4356 28.1556 25.0003 28.1556C25.2747 28.1556 25.5323 28.0409 25.7255 27.8328C25.9184 27.6243 26.0246 27.3463 26.0246 27.0502V16.6563C26.0246 16.31 26.2845 16.0292 26.6058 16.0292C26.9267 16.0292 27.1869 16.3096 27.1869 16.6563L27.1865 25.0278V25.1252C27.1865 25.7342 27.6461 26.2302 28.2112 26.2302C28.4853 26.2302 28.7422 26.1151 28.9365 25.9062C29.1293 25.6985 29.2356 25.4213 29.2356 25.1248V16.6559C29.2356 16.3095 29.4954 16.0288 29.8167 16.0288C30.1377 16.0288 30.3978 16.3092 30.3978 16.6559L30.3971 23.0484C30.3971 23.6582 30.8567 24.1542 31.4211 24.1542C31.6958 24.1542 31.9527 24.0391 32.1456 23.8314C32.3392 23.6225 32.445 23.3445 32.445 23.0484L32.4454 10.0912C32.4454 5.76999 29.4812 2.25364 25.8375 2.25364L25.8376 2.25351Z" fill="#2C5F2D"/>
<path d="M8.58905 34.4134L17.0217 28.9546C18.0384 28.2957 19.3466 28.5756 19.9987 29.5922C20.2367 29.9625 20.3582 30.3941 20.3771 30.8335C20.6915 30.6564 21.0336 30.5602 21.3818 30.5602C21.5601 30.5602 21.7391 30.5841 21.916 30.6317C22.4826 30.7844 22.96 31.1665 23.2602 31.7067C23.5608 32.2478 23.6485 32.8819 23.5069 33.4926C23.3763 34.0576 23.0579 34.5332 22.615 34.8595C22.9247 35.0566 23.1918 35.3256 23.3818 35.668C23.6823 36.2091 23.77 36.8429 23.6288 37.4543C23.4873 38.0648 23.1332 38.58 22.6318 38.9048L22.6289 38.9067C22.9331 39.1035 23.1955 39.3697 23.3832 39.707C23.6842 40.2481 23.7719 40.8822 23.6303 41.4936C23.4884 42.1045 23.1343 42.6197 22.6336 42.9441L12.3372 49.6096C10.4155 50.8531 8.19394 51.2823 6.08268 50.817C3.9525 50.3474 2.18833 49.0261 1.11565 47.0965C-0.581916 44.0436 -0.32751 40.4366 1.77829 37.6836C1.87472 37.5579 1.96969 37.4299 2.05594 37.2972C2.14727 37.157 2.25389 36.9921 2.29028 36.9356C2.50824 36.5154 6.06492 29.6006 6.06455 29.6014C6.42371 28.9021 7.09689 28.5062 7.79118 28.5066C8.11504 28.5066 8.44363 28.5926 8.74677 28.774C9.11284 28.9947 9.42032 29.3163 9.63538 29.7039C10.0775 30.499 10.0932 31.494 9.67686 32.2993L8.58905 34.4134ZM8.63963 30.3485C8.52683 30.1455 8.37181 29.9837 8.18222 29.8691C7.79032 29.635 7.29688 29.7874 7.08113 30.2087C4.53613 35.1563 3.66858 36.8423 3.33378 37.4423L3.34142 37.4443C3.3134 37.5448 3.3134 37.5448 3.00701 38.0172C2.90294 38.177 2.78977 38.3305 2.67442 38.4817C0.863669 40.8491 0.653418 43.8283 2.11148 46.4516C3.01465 48.0764 4.50734 49.1904 6.31473 49.5885C8.14178 49.9895 10.0675 49.6164 11.7389 48.5343L22.0362 41.8685C22.2713 41.7165 22.4372 41.475 22.5035 41.1888C22.5697 40.9029 22.5286 40.6057 22.3874 40.352C22.097 39.8298 21.4664 39.6582 20.9824 39.9727L15.9026 43.2613C15.6275 43.4395 15.2701 43.3437 15.1053 43.0465C14.9401 42.7496 15.0292 42.3644 15.3043 42.1862L20.3846 38.8976L22.0344 37.8296C22.2695 37.6772 22.4358 37.4357 22.502 37.1503C22.5682 36.864 22.5271 36.5664 22.3859 36.3131C22.0952 35.7905 21.4646 35.6205 20.981 35.9338L14.2509 40.2904C13.9751 40.4691 13.6188 40.3725 13.4536 40.0756C13.2884 39.7788 13.3779 39.3936 13.6527 39.2153L21.9125 33.8685C22.1476 33.7161 22.3135 33.475 22.3798 33.1888C22.446 32.9029 22.4049 32.6057 22.264 32.352C22.1232 32.0987 21.8994 31.9197 21.6342 31.8482C21.3674 31.7768 21.0931 31.8211 20.8587 31.9727L19.3297 32.9626C19.3293 32.9626 19.3293 32.963 19.3289 32.963H19.3286L12.5989 37.3196C12.323 37.4986 11.9664 37.4021 11.8016 37.1048C11.6364 36.808 11.7259 36.4228 12.0006 36.2445L18.7307 31.8879C18.9658 31.7355 19.1321 31.494 19.1983 31.2086C19.2711 30.8952 19.2158 30.5748 19.0433 30.3062C18.7442 29.8394 18.1045 29.7153 17.6194 30.0298L7.32951 36.691C7.10426 36.8362 6.8157 36.8009 6.62684 36.6042C6.43762 36.4071 6.39504 36.0973 6.5224 35.8495L8.66208 31.6896C8.87677 31.2738 8.8684 30.7602 8.63952 30.3486L8.63963 30.3485Z" fill="#2C5F2D"/>
<path d="M48.8842 47.0961C47.8118 49.026 46.0481 50.347 43.9175 50.8166C41.8059 51.2812 39.5851 50.8528 37.663 49.6092L27.3656 42.9434C26.8646 42.619 26.5101 42.1039 26.3682 41.4921C26.2274 40.8815 26.3154 40.2473 26.6157 39.707C26.8031 39.3693 27.0658 39.1031 27.3704 38.9064L27.3674 38.9044C26.8664 38.58 26.5119 38.0649 26.3708 37.4539C26.2289 36.8429 26.3169 36.2083 26.6175 35.6673C26.8111 35.3198 27.0764 35.0481 27.3791 34.8553C26.9395 34.529 26.623 34.055 26.4927 33.4927C26.3508 32.8813 26.4388 32.2471 26.7394 31.7068C27.0396 31.1661 27.5174 30.7841 28.0836 30.6314C28.2605 30.5835 28.4399 30.5599 28.6174 30.5599C28.9661 30.5603 29.3081 30.6557 29.6225 30.8332C29.6418 30.3938 29.763 29.9623 30.0009 29.5919C30.6534 28.5762 31.9605 28.295 32.9786 28.9543L41.411 34.4123L40.3241 32.2997C39.9071 31.4932 39.9224 30.4982 40.3645 29.7026C40.5799 29.3155 40.8878 28.9939 41.2557 28.7713C41.558 28.5906 41.8855 28.505 42.2086 28.505C42.9026 28.5054 43.5765 28.9004 43.9353 29.5998C45.1856 32.0308 47.545 36.6155 47.7109 36.9356C47.7462 36.9909 47.8528 37.1559 47.9442 37.296C48.0312 37.4291 48.125 37.5564 48.2222 37.6828C50.3277 40.4369 50.5816 44.0435 48.8841 47.0962L48.8842 47.0961ZM47.3257 38.4819C47.21 38.3308 47.0964 38.1764 46.9931 38.0174C46.6787 37.536 46.6707 37.5234 46.647 37.3974C46.2795 36.7413 45.3829 34.9995 42.9183 30.2081C42.7022 29.7876 42.2109 29.634 41.8197 29.8673C41.6272 29.9835 41.4726 30.1457 41.3598 30.3487C41.1313 30.7598 41.1225 31.2734 41.3383 31.6904L43.4773 35.8491C43.605 36.0973 43.5624 36.4067 43.3735 36.6038C43.1851 36.8013 42.8969 36.8359 42.6705 36.6906L32.3806 30.0294C31.8955 29.7157 31.2562 29.8386 30.9564 30.3059C30.7839 30.5744 30.7289 30.8949 30.801 31.2078C30.8672 31.4937 31.0335 31.7348 31.2689 31.8871C31.2697 31.8875 31.27 31.8883 31.2707 31.8887L37.9987 36.2441C38.2738 36.4223 38.3629 36.8072 38.1977 37.1044C38.0325 37.4009 37.6763 37.4979 37.4005 37.3192L29.1406 31.9723C28.9062 31.8208 28.6304 31.776 28.3655 31.8479C28.0999 31.9193 27.8764 32.0984 27.7356 32.3524C27.5944 32.6057 27.5537 32.903 27.6192 33.1888C27.6854 33.4747 27.8517 33.7162 28.0868 33.8685L29.6941 34.9087L36.3463 39.2154C36.6214 39.3937 36.7105 39.7785 36.5453 40.0758C36.3801 40.3722 36.0239 40.4688 35.748 40.2906L29.0187 35.934C28.5347 35.6198 27.9045 35.7902 27.6134 36.3133C27.4722 36.5669 27.4314 36.8642 27.4969 37.15C27.5631 37.4359 27.7294 37.677 27.9649 37.8297L29.6147 38.8978L34.6942 42.1863C34.9693 42.3646 35.0585 42.7494 34.8933 43.0466C34.7281 43.3431 34.3718 43.4405 34.096 43.2614L29.0165 39.9729C28.7822 39.8213 28.5074 39.7765 28.2411 39.8484C27.9761 39.9199 27.752 40.0989 27.6112 40.3522C27.4704 40.6058 27.4292 40.9035 27.4947 41.1889C27.561 41.4748 27.7273 41.7159 27.9627 41.8686L38.2601 48.5344C39.9311 49.6162 41.8582 49.9908 43.6842 49.5887C45.4912 49.1905 46.9839 48.0765 47.8871 46.4517C49.3466 43.8279 49.1367 40.8484 47.3263 38.4819L47.3257 38.4819Z" fill="#2C5F2D"/>
</svg>
