<svg width="40" height="40" viewBox="0 0 40 40" fill="#1c603a" xmlns="http://www.w3.org/2000/svg">
<g clip-path="url(#clip0_270_625)">
<path d="M8.63506 22.9706C8.4985 23.0801 8.33492 23.1333 8.17255 23.1333C7.95568 23.1333 7.74076 23.0385 7.59457 22.8561L7.49289 22.7292C7.38353 22.5928 7.33034 22.4296 7.33024 22.2673C7.33015 22.0502 7.42498 21.8351 7.60753 21.6888C7.92645 21.4333 8.39229 21.4844 8.64801 21.8033L8.74969 21.9301C8.85905 22.0666 8.91225 22.2298 8.91244 22.3921C8.91244 22.6091 8.81751 22.8243 8.63506 22.9706ZM10.7394 26.7805C10.8856 26.9633 11.1007 27.0583 11.3178 27.0583C11.48 27.0583 11.6434 27.0053 11.7798 26.896C11.9625 26.7499 12.0575 26.5348 12.0576 26.3177C12.0576 26.1556 12.0046 25.9922 11.8953 25.8557L11.7938 25.7289C11.5384 25.4097 11.0725 25.3579 10.7534 25.6134C10.5708 25.7595 10.4758 25.9746 10.4757 26.1916C10.4757 26.3538 10.5287 26.5172 10.6379 26.6537L10.7394 26.7805ZM10.4439 23.3282C10.6065 23.3282 10.7703 23.2749 10.9069 23.1652C11.0894 23.0187 11.184 22.8035 11.1837 22.5865C11.1834 22.4242 11.1302 22.2609 11.0206 22.1246L10.9188 21.9979C10.6629 21.6791 10.197 21.6282 9.87826 21.8842C9.69646 22.0302 9.60181 22.2444 9.60144 22.4607C9.60125 22.6236 9.65455 22.7877 9.76446 22.9247L9.86623 23.0515C10.0125 23.2336 10.2272 23.3282 10.4439 23.3282ZM8.56798 25.3417C8.71417 25.5239 8.929 25.6187 9.14577 25.6187C9.30824 25.6187 9.47182 25.5655 9.60847 25.4558C9.79092 25.3095 9.88576 25.0943 9.88557 24.8772C9.88539 24.715 9.83209 24.5516 9.72273 24.4153L9.62105 24.2886C9.36523 23.9698 8.89939 23.9187 8.58057 24.1744C8.39812 24.3208 8.30328 24.536 8.30347 24.753C8.30365 24.9152 8.35695 25.0786 8.4663 25.2149L8.56798 25.3417ZM0.638781 17.5226C-0.365901 16.2687 -0.163281 14.4313 1.09047 13.4265C1.71082 12.9293 2.48475 12.7184 3.23713 12.8029C3.31864 12.0505 3.69298 11.3409 4.31324 10.8437C5.56708 9.8389 7.40463 10.0413 8.4094 11.2953C9.2543 12.3496 9.24542 13.8166 8.47583 14.8543L9.78167 16.4836L10.3685 16.0134C10.5302 15.8839 10.7386 15.828 10.9431 15.8592C11.2315 15.9033 11.5239 15.9668 11.8125 16.0484C12.2059 16.1594 12.4347 16.5685 12.3236 16.9619C12.2125 17.3552 11.8035 17.5844 11.41 17.4729C11.284 17.4373 11.1575 17.406 11.0311 17.3793L6.00572 21.4066C5.99684 22.227 6.16606 23.0922 6.5008 23.9285C6.65271 24.308 6.46814 24.7388 6.08862 24.8906C5.99841 24.9268 5.90533 24.9438 5.81383 24.9438C5.52017 24.9438 5.24224 24.7678 5.1264 24.4785C4.6662 23.3287 4.46377 22.1222 4.54121 20.9895C4.55527 20.783 4.65529 20.5917 4.81683 20.4623L5.40359 19.9921L4.09776 18.3626C2.91729 18.8878 1.48368 18.5766 0.638781 17.5226ZM3.80919 16.8188C3.94575 16.7094 4.10923 16.6563 4.2716 16.6563C4.48847 16.6563 4.7034 16.7511 4.84967 16.9336L6.5589 19.0663L8.62664 17.4093L6.91742 15.2766C6.79464 15.1235 6.73783 14.9277 6.7593 14.7326C6.78076 14.5376 6.87893 14.3589 7.03214 14.2362C7.64898 13.7418 7.74871 12.8378 7.25428 12.2209C6.75995 11.6042 5.85593 11.5043 5.23909 11.9988C4.75475 12.3869 4.57507 13.038 4.79212 13.6189C4.90398 13.9182 4.81109 14.2556 4.56166 14.4555C4.31231 14.6554 3.96277 14.6727 3.69492 14.4982C3.17523 14.1602 2.50067 14.1935 2.01623 14.5816C1.39939 15.0759 1.29966 15.98 1.7939 16.5968C2.28833 17.2135 3.19235 17.3134 3.80919 16.8188ZM15.9181 18.0781V19.3593C15.9181 19.768 16.2495 20.0994 16.6583 20.0994C17.067 20.0994 17.3984 19.768 17.3984 19.3593V18.0781C17.3984 17.6694 17.067 17.338 16.6583 17.338C16.2495 17.338 15.9181 17.6694 15.9181 18.0781ZM24.2288 18.5955C23.6891 18.1804 23.1229 17.9652 22.5457 17.9556C22.5376 17.9554 22.5294 17.9554 22.5215 17.9556C21.5414 17.9717 20.5662 18.6055 19.7757 19.7404C18.5827 21.4526 17.7868 24.36 18.5739 26.6035C18.6808 26.9082 18.9667 27.0989 19.2723 27.0989C19.3536 27.0989 19.4363 27.0854 19.5173 27.057C19.9031 26.9217 20.1061 26.4994 19.9708 26.1136C19.3774 24.4219 20.0231 21.975 20.9904 20.5866C21.4901 19.8693 22.0518 19.4509 22.5338 19.4362C22.7824 19.4436 23.0489 19.5555 23.3262 19.769C23.6501 20.0182 24.115 19.9575 24.3642 19.6336C24.6134 19.3095 24.5528 18.8449 24.2288 18.5955ZM29.4061 26.3501C29.817 26.3588 30.154 26.0365 30.1637 25.6277C30.2154 23.461 29.4909 21.0109 27.7556 20.4214C27.7479 20.4188 27.7401 20.4163 27.7324 20.414C26.9572 20.1789 26.0642 20.3404 25.1506 20.8813C23.4362 21.8966 21.8803 24.1179 21.4509 26.1632C21.367 26.5633 21.6232 26.9557 22.0233 27.0397C22.0745 27.0504 22.1257 27.0557 22.176 27.0557C22.5188 27.0557 22.8264 26.8162 22.8997 26.4674C23.2458 24.8186 24.5378 22.9648 25.9049 22.1552C26.4381 21.8394 26.9296 21.7231 27.2908 21.8273C28.1299 22.125 28.728 23.7392 28.6838 25.5927C28.6741 26.0011 28.9975 26.3403 29.4061 26.3501ZM7.34486 9.08143C7.44895 9.13195 7.55895 9.15591 7.66739 9.15591C7.94199 9.15591 8.20586 9.00242 8.33381 8.73864C8.36416 8.6761 8.73082 7.73572 8.76256 7.66309C10.498 4.33873 13.8225 2.13517 17.8859 1.61659C22.1218 1.07636 26.3698 2.53365 28.9724 5.42067C29.2461 5.72423 29.7142 5.74847 30.0177 5.47488C30.3213 5.20111 30.3456 4.73305 30.0718 4.42949C28.5859 2.78124 26.623 1.5199 24.3953 0.781866C22.2735 0.0788945 19.9579 -0.140009 17.6985 0.1481C13.1416 0.729685 9.40363 3.22432 7.44275 6.99259C7.40546 7.06429 7.02076 8.04844 6.99782 8.10145C6.8261 8.46746 6.98005 8.90444 7.34486 9.08143ZM22.7277 15.4931C23.0089 15.7899 22.9961 16.2583 22.6993 16.5395C22.4025 16.8206 21.9341 16.8078 21.6529 16.511C21.3887 16.2321 21.0524 16.0449 20.6807 15.9699C20.3353 15.9002 20.087 15.5967 20.087 15.2443V14.2857H16.8274V15.2443C16.8274 15.5967 16.579 15.9002 16.2337 15.9699C15.3779 16.1425 14.7569 16.9004 14.7569 17.7719V26.1335C14.7569 26.5423 14.4255 26.8737 14.0167 26.8737C13.608 26.8737 13.2765 26.5423 13.2765 26.1335V17.7719C13.2765 16.4084 14.1179 15.1991 15.3472 14.6979V13.8882C14.9947 13.5856 14.771 13.137 14.771 12.6372V11.6612C14.771 10.7523 15.5105 10.0127 16.4196 10.0127H20.495C21.404 10.0127 22.1434 10.7523 22.1434 11.6612V12.6372C22.1434 13.1371 21.9198 13.5857 21.5673 13.8882V14.6975C22.0031 14.8749 22.3972 15.1441 22.7277 15.4931ZM20.6632 11.6612C20.6632 11.57 20.5862 11.4931 20.4951 11.4931H16.4197C16.3284 11.4931 16.2515 11.57 16.2515 11.6612V12.6372C16.2515 12.7061 16.2956 12.767 16.3565 12.7926C16.3586 12.7935 16.3607 12.7944 16.3628 12.7951C16.3807 12.8018 16.3999 12.8054 16.4197 12.8054H20.4951C20.5144 12.8054 20.5332 12.802 20.5507 12.7956C20.5537 12.7944 20.5565 12.7933 20.5595 12.7922C20.6197 12.7663 20.6633 12.7056 20.6633 12.6372V11.6612H20.6632ZM36.6279 26.5929C36.5898 28.2533 35.5128 30.3866 33.673 32.4458C31.8825 34.4497 29.5787 36.1731 27.144 37.3364V39.2349C27.144 39.6437 26.8126 39.9751 26.4038 39.9751H12.8848C12.4761 39.9751 12.1446 39.6437 12.1446 39.2349V37.3364C9.70997 36.1731 7.40602 34.4497 5.61565 32.4458C3.77578 30.3866 2.69875 28.2534 2.66063 26.5929C2.65407 26.304 2.81616 26.0376 3.07587 25.9107C3.33566 25.784 3.64542 25.82 3.86914 26.0029C4.19056 26.2658 5.38629 26.9311 9.53649 27.4298C12.3499 27.7679 15.9396 27.9542 19.6444 27.9542C23.3492 27.9542 26.9389 27.7679 29.7522 27.4298C33.9023 26.9311 35.098 26.2658 35.4194 26.003C35.6431 25.8201 35.953 25.7841 36.2127 25.9107C36.4724 26.0376 36.6345 26.304 36.6279 26.5929ZM25.6636 37.6035H13.625V38.4948H25.6636V37.6035ZM34.8595 27.9111C30.746 29.3515 21.6596 29.4345 19.6443 29.4345C17.629 29.4345 8.54254 29.3516 4.42898 27.9111C4.66861 28.5608 5.05137 29.2668 5.55468 29.991C5.56763 30.0051 5.58012 30.0198 5.59224 30.0351C5.69984 30.1718 5.92939 30.4009 6.2583 30.4009C6.55103 30.4009 6.82924 30.2161 7.02159 29.8939C7.23115 29.5429 7.68543 29.4285 8.03655 29.6378C8.38748 29.8473 8.5022 30.3018 8.29264 30.6527C7.97548 31.184 7.51473 31.5674 6.99162 31.7537C7.53111 32.3295 8.13462 32.8975 8.79142 33.4397C9.02263 33.1767 9.41538 33.1076 9.72662 33.2936C10.0775 33.5033 10.1921 33.9577 9.98244 34.3087C9.97661 34.3185 9.97069 34.3283 9.96468 34.338C10.9163 35.0128 11.9517 35.6226 13.0445 36.1232H26.244C27.2695 35.6534 28.2443 35.0877 29.1469 34.4621C29.1128 34.4124 29.0801 34.3612 29.0486 34.3088C28.8389 33.9578 28.9533 33.5034 29.3043 33.2936C29.6551 33.0839 30.1097 33.1984 30.3193 33.5493C30.324 33.5573 30.3289 33.5652 30.3338 33.573C31.0574 32.9884 31.7193 32.371 32.3052 31.7448C31.7923 31.5553 31.341 31.1757 31.0288 30.6528C30.8192 30.3019 30.9338 29.8474 31.2848 29.6378C31.6358 29.4282 32.0902 29.5429 32.2997 29.8939C32.4922 30.216 32.7703 30.4009 33.0629 30.4009C33.3047 30.4009 33.4917 30.2767 33.6115 30.1641C34.1753 29.3795 34.6008 28.6124 34.8595 27.9111ZM35.6492 10.5685C35.2973 10.3605 34.8434 10.4773 34.6355 10.8292L34.5415 10.9882C34.4716 11.1064 34.4384 11.2362 34.4384 11.3642C34.4385 11.6173 34.5685 11.8638 34.8022 12.002C34.9204 12.0719 35.0501 12.105 35.178 12.105C35.4313 12.105 35.6778 11.9751 35.816 11.7413L35.91 11.5823C35.9798 11.464 36.013 11.3342 36.013 11.2063C36.0128 10.9531 35.8829 10.7066 35.6492 10.5685ZM33.6191 12.0068C33.2666 11.7998 32.813 11.9176 32.6059 12.27L32.5123 12.4291C32.4431 12.5468 32.4102 12.6758 32.4102 12.8032C32.4101 13.057 32.5407 13.3043 32.7755 13.4423C32.8932 13.5115 33.0224 13.5444 33.1498 13.5444C33.4036 13.5444 33.6508 13.4138 33.7886 13.1793L33.8822 13.0201C33.9514 12.9024 33.9843 12.7735 33.9843 12.6461C33.9844 12.3921 33.8537 12.1448 33.6191 12.0068ZM33.8977 9.53598C33.5457 9.328 33.0919 9.44504 32.884 9.79698L32.7902 9.95593C32.7204 10.0742 32.6872 10.204 32.6873 10.3319C32.6875 10.5851 32.8175 10.8315 33.0513 10.9696C33.1694 11.0394 33.2989 11.0725 33.4269 11.0725C33.6801 11.0725 33.9269 10.9424 34.0649 10.7085L34.1587 10.5495C34.2285 10.4313 34.2617 10.3015 34.2616 10.1735C34.2615 9.9205 34.1314 9.67402 33.8977 9.53598ZM39.9632 12.4149C39.0662 15.1491 37.6849 18.1334 35.9686 21.0448C35.2369 22.286 34.4592 23.4886 33.6573 24.6193C33.5129 24.8228 33.2847 24.9314 33.0529 24.9314C32.9048 24.9314 32.7554 24.8871 32.6254 24.7949C32.2919 24.5584 32.2133 24.0963 32.4499 23.763C33.228 22.666 33.9827 21.4984 34.6935 20.2931C36.0906 17.923 37.2569 15.5087 38.1066 13.2351C37.9041 13.3099 37.6948 13.3969 37.4797 13.4953C37.4561 13.5078 37.4317 13.519 37.4068 13.5289C35.3573 14.4855 32.7817 16.474 30.222 19.1233C30.1481 19.3374 30.0724 19.5522 29.9946 19.7682C29.8562 20.1528 29.4326 20.3528 29.0476 20.2141C28.663 20.0757 28.4633 19.6517 28.6017 19.2671C28.6934 19.0119 28.7824 18.7582 28.8688 18.5057C28.8724 18.4944 28.8763 18.4831 28.8803 18.4719C30.1327 14.7999 30.8049 11.4272 30.7809 9.06015C30.7789 9.03175 30.7785 9.00325 30.7797 8.97485C30.7789 8.92757 30.7777 8.88066 30.7764 8.83421C29.3113 10.6534 27.865 12.7586 26.5407 15.0048C26.1434 15.6786 25.7574 16.365 25.3935 17.045C25.2006 17.4054 24.752 17.5411 24.3916 17.3481C24.0311 17.1552 23.8954 16.7067 24.0883 16.3463C24.4618 15.6485 24.8579 14.9443 25.2655 14.253C26.959 11.3805 28.8512 8.72708 30.7375 6.57986C30.9186 6.37391 31.1987 6.28481 31.4654 6.34846C31.7321 6.41212 31.9417 6.61798 32.0103 6.88351C32.0562 7.06124 32.0955 7.2486 32.1285 7.44529C34.2894 5.61644 36.0622 5.03495 37.2999 5.76466C38.8923 6.70337 38.7696 9.2574 38.2174 11.6458C38.5522 11.55 38.8718 11.4838 39.1746 11.4488C39.4252 11.4195 39.6737 11.5204 39.8333 11.716C39.9929 11.9115 40.0418 12.1749 39.9632 12.4149ZM36.5482 7.03996C35.997 6.71503 34.5496 7.12998 32.2576 9.32208C32.2393 11.2089 31.8552 13.5634 31.1389 16.1719C33.0406 14.449 34.8861 13.1302 36.5132 12.3238C37.4049 9.18894 37.1827 7.41412 36.5482 7.03996ZM35.8222 8.27132C35.4699 8.0638 35.0163 8.18111 34.8088 8.53325L34.7151 8.69229C34.6454 8.81062 34.6123 8.94043 34.6124 9.06838C34.6128 9.32152 34.7432 9.5679 34.977 9.70576C35.0949 9.77524 35.2243 9.80827 35.352 9.80827C35.6055 9.80827 35.8524 9.678 35.9904 9.44383L36.0841 9.28479C36.1537 9.16646 36.1869 9.03665 36.1867 8.90869C36.1864 8.65556 36.0561 8.40917 35.8222 8.27132ZM13.2034 31.2314C13.4129 30.8805 13.2983 30.426 12.9474 30.2165C12.5965 30.0068 12.142 30.1215 11.9324 30.4725C11.74 30.7946 11.4618 30.9794 11.1691 30.9794C10.8765 30.9794 10.5984 30.7946 10.4061 30.4725C10.1965 30.1215 9.74235 30.0069 9.39114 30.2163C9.04021 30.4258 8.92548 30.8803 9.13504 31.2312C9.59422 32.0004 10.3546 32.4596 11.1691 32.4596C11.9836 32.4597 12.744 32.0005 13.2034 31.2314ZM18.7676 31.2315C18.9772 30.8806 18.8626 30.4261 18.5116 30.2165C18.1608 30.007 17.7062 30.1215 17.4966 30.4724C17.3041 30.7945 17.0259 30.9794 16.7333 30.9794C16.4407 30.9794 16.1625 30.7946 15.9701 30.4725C15.7605 30.1215 15.3062 30.0069 14.9551 30.2165C14.6042 30.426 14.4896 30.8805 14.6991 31.2314C15.1585 32.0005 15.9189 32.4597 16.7333 32.4597C17.5477 32.4597 18.3081 32.0005 18.7676 31.2315ZM27.8616 32.4597C28.676 32.4597 29.4366 32.0005 29.8958 31.2314C30.1054 30.8805 29.9908 30.426 29.6398 30.2165C29.2889 30.0068 28.8345 30.1215 28.6249 30.4725C28.4324 30.7946 28.1543 30.9794 27.8616 30.9794C27.5689 30.9794 27.2908 30.7946 27.0984 30.4725C26.8887 30.1215 26.4344 30.0069 26.0834 30.2165C25.7325 30.426 25.6179 30.8805 25.8274 31.2314C26.2868 32.0005 27.0472 32.4597 27.8616 32.4597ZM15.5102 33.2935C15.1592 33.084 14.7049 33.1985 14.4952 33.5494C14.3027 33.8716 14.0245 34.0564 13.7318 34.0564C13.4393 34.0564 13.1612 33.8716 12.9685 33.5494C12.7589 33.1985 12.3044 33.0839 11.9536 33.2935C11.6027 33.5032 11.4881 33.9576 11.6977 34.3086C12.1571 35.0777 12.9176 35.5368 13.7317 35.5368C14.5461 35.5368 15.3065 35.0776 15.766 34.3086C15.9757 33.9575 15.8611 33.5031 15.5102 33.2935ZM18.7522 33.5494C18.5426 33.1985 18.0883 33.0839 17.7372 33.2934C17.3863 33.503 17.2717 33.9575 17.4812 34.3084C17.9406 35.0775 18.701 35.5367 19.5154 35.5367C20.3299 35.5367 21.0904 35.0775 21.5496 34.3084C21.7592 33.9574 21.6446 33.503 21.2936 33.2933C20.9427 33.0841 20.4882 33.1985 20.2787 33.5494C20.0863 33.8716 19.8081 34.0564 19.5154 34.0564C19.2228 34.0564 18.9445 33.8717 18.7522 33.5494ZM22.2974 32.4597C23.1119 32.4597 23.8724 32.0005 24.3317 31.2314C24.5413 30.8805 24.4267 30.426 24.0757 30.2165C23.7248 30.0068 23.2704 30.1215 23.0608 30.4725C22.8683 30.7946 22.5901 30.9794 22.2975 30.9794C22.0048 30.9794 21.7267 30.7946 21.5343 30.4725C21.3247 30.1215 20.8704 30.0069 20.5193 30.2165C20.1684 30.426 20.0538 30.8805 20.2633 31.2314C20.7226 32.0005 21.4829 32.4597 22.2974 32.4597ZM23.5207 33.2935C23.1698 33.5031 23.0551 33.9575 23.2647 34.3085C23.7241 35.0776 24.4845 35.5368 25.2989 35.5368C26.1132 35.5368 26.8737 35.0776 27.3331 34.3086C27.5428 33.9576 27.4281 33.5032 27.0772 33.2935C26.7263 33.084 26.2718 33.1985 26.0622 33.5494C25.8697 33.8716 25.5915 34.0564 25.2989 34.0564C25.0062 34.0564 24.7281 33.8717 24.5357 33.5495C24.3262 33.1985 23.8718 33.0839 23.5207 33.2935Z" fill="#1c603a"/>
</g>
</svg>
