<svg width="30" height="30" viewBox="0 0 30 30" fill="none" xmlns="http://www.w3.org/2000/svg">
<path d="M15.0219 29C8.06582 29 1 27.4829 1 24.5825C1 21.9944 6.442 20.9235 8.76801 20.5888H8.85579C9.18494 20.5888 9.47021 20.8343 9.51409 21.1689C9.53604 21.3474 9.49215 21.5259 9.38243 21.6598C9.27271 21.7936 9.11911 21.9052 8.94356 21.9275C4.09404 22.6414 2.29467 23.9355 2.29467 24.6048C2.29467 25.8542 7.25391 27.6837 15 27.6837C22.746 27.6837 27.7053 25.8542 27.7053 24.6048C27.7053 23.9355 25.884 22.6414 20.9906 21.9275C20.815 21.9052 20.6614 21.8159 20.5517 21.6598C20.442 21.5259 20.3981 21.3474 20.42 21.1689C20.4639 20.8343 20.7492 20.5888 21.0783 20.5888H21.1661C23.5141 20.9235 29 21.9944 29 24.5825C29.0219 27.4606 21.978 29 15.0219 29ZM14.5611 24.2701C14.232 23.9578 6.63949 16.6622 6.63949 9.5004C6.63949 4.81514 10.3918 1 15 1C19.6081 1 23.3605 4.81514 23.3605 9.5004C23.3605 16.4614 15.768 23.9355 15.4388 24.2478L15 24.694L14.5611 24.2701ZM15.0219 2.33865C11.1379 2.33865 7.97804 5.55139 7.97804 9.5004C7.97804 15.1004 13.3542 21.102 15.0219 22.8199C16.7116 21.0574 22.0877 14.9442 22.0877 9.5004C22.0658 5.57371 18.9059 2.33865 15.0219 2.33865ZM15.0219 13.2932C12.8276 13.2932 11.0501 11.4861 11.0501 9.25498C11.0501 7.0239 12.8276 5.21673 15.0219 5.21673C17.2163 5.21673 18.9937 7.0239 18.9937 9.25498C18.9937 11.4861 17.2163 13.2932 15.0219 13.2932ZM15.0219 6.55538C13.5517 6.55538 12.3668 7.76016 12.3668 9.25498C12.3668 10.7498 13.5517 11.9546 15.0219 11.9546C16.4921 11.9546 17.6771 10.7498 17.6771 9.25498C17.6771 7.76016 16.4702 6.55538 15.0219 6.55538Z" fill="#2C5F2D" stroke="#2C5F2D"/>
</svg>
