<svg width="70" height="67" viewBox="0 0 70 67" fill="none" xmlns="http://www.w3.org/2000/svg">
<path d="M70 49C70 58.9411 61.9411 67 52 67L25 67C22.2386 67 20 64.7614 20 62L20 28C20 22.4772 24.4772 18 30 18L65 18C67.7614 18 70 20.2386 70 23L70 49Z" fill="#E8F5E9"/>
<path fill-rule="evenodd" clip-rule="evenodd" d="M9.37499 19.75H11.4583V30.1667H38.5417V19.75H40.625V30.1667H42.1875C42.4751 30.1667 42.7083 30.3999 42.7083 30.6875V31.7292C42.7083 32.0168 42.4751 32.25 42.1875 32.25H7.81249C7.52484 32.25 7.29166 32.0168 7.29166 31.7292V30.6875C7.29166 30.3999 7.52484 30.1667 7.81249 30.1667H9.37499V19.75ZM10.4167 35.375V42.6667H39.5833V35.375H10.4167ZM9.37499 33.2917C8.7997 33.2917 8.33332 33.758 8.33332 34.3333V43.7083C8.33332 44.2836 8.7997 44.75 9.37499 44.75H40.625C41.2003 44.75 41.6667 44.2836 41.6667 43.7083V34.3333C41.6667 33.758 41.2003 33.2917 40.625 33.2917H9.37499Z" fill="#2C5F2D"/>
<path fill-rule="evenodd" clip-rule="evenodd" d="M10.6133 9.33333L8.37869 15.4926C8.34873 15.5752 8.33333 15.6626 8.33333 15.7509V18.2406C8.33333 19.0825 9.00778 19.75 9.82143 19.75C10.6351 19.75 11.3095 19.0825 11.3095 18.2406C11.3095 17.6653 11.7759 17.199 12.3511 17.199C12.9265 17.199 13.3928 17.6653 13.3928 18.2406C13.3928 19.0825 14.0673 19.75 14.8809 19.75C15.6946 19.75 16.3691 19.0825 16.3691 18.2406C16.3691 17.6653 16.8354 17.199 17.4107 17.199C17.986 17.199 18.4524 17.6653 18.4524 18.2406C18.4524 19.0825 19.1269 19.75 19.9405 19.75C20.7537 19.75 21.4279 19.0831 21.4285 18.2419C21.4291 17.667 21.8953 17.201 22.4702 17.201C23.0452 17.201 23.5115 17.667 23.5119 18.2419C23.5126 19.0831 24.1868 19.75 25 19.75C25.8136 19.75 26.4881 19.0825 26.4881 18.2406C26.4881 17.6653 26.9545 17.199 27.5298 17.199C28.1051 17.199 28.5715 17.6653 28.5715 18.2406C28.5715 19.0825 29.2458 19.75 30.0595 19.75C30.8728 19.75 31.547 19.0831 31.5476 18.2419C31.5481 17.667 32.0143 17.201 32.5893 17.201C33.1643 17.201 33.6305 17.667 33.6309 18.2419C33.6317 19.0831 34.3058 19.75 35.1191 19.75C35.9327 19.75 36.6072 19.0825 36.6072 18.2406C36.6072 17.6653 37.0735 17.199 37.6489 17.199C38.2241 17.199 38.6905 17.6653 38.6905 18.2406C38.6905 19.0825 39.3649 19.75 40.1785 19.75C40.9922 19.75 41.6667 19.0825 41.6667 18.2406V15.7509C41.6667 15.6626 41.6512 15.5752 41.6214 15.4926L39.3867 9.33333H10.6133ZM39.3504 9.23328C39.3503 9.2332 39.3504 9.23338 39.3504 9.23328V9.23328ZM37.6489 20.7767C37.0034 21.4286 36.11 21.8333 35.1191 21.8333C34.128 21.8333 33.2347 21.4286 32.5893 20.7767C31.944 21.4286 31.0505 21.8333 30.0595 21.8333C29.0685 21.8333 28.1751 21.4286 27.5298 20.7767C26.8844 21.4286 25.991 21.8333 25 21.8333C24.009 21.8333 23.1156 21.4286 22.4702 20.7767C21.8249 21.4286 20.9315 21.8333 19.9405 21.8333C18.9495 21.8333 18.056 21.4286 17.4107 20.7767C16.7653 21.4286 15.872 21.8333 14.8809 21.8333C13.89 21.8333 12.9966 21.4286 12.3511 20.7767C11.7058 21.4286 10.8124 21.8333 9.82143 21.8333C7.84078 21.8333 6.25 20.2166 6.25 18.2406V15.7509C6.25 15.4206 6.30758 15.0927 6.42026 14.7821L8.69128 8.52249C8.96697 7.7626 9.68762 7.25 10.502 7.25H39.498C40.3124 7.25 41.033 7.7626 41.3087 8.5225L43.5798 14.7821C43.6924 15.0927 43.75 15.4206 43.75 15.7509V18.2406C43.75 20.2166 42.1592 21.8333 40.1785 21.8333C39.1876 21.8333 38.2942 21.4286 37.6489 20.7767Z" fill="#2C5F2D"/>
<path d="M12.5 27.5625C12.5 27.2749 12.7332 27.0416 13.0208 27.0416H16.1458C16.4334 27.0416 16.6667 27.2749 16.6667 27.5625V29.6458C16.6667 29.9334 16.4334 30.1666 16.1458 30.1666H13.0208C12.7332 30.1666 12.5 29.9334 12.5 29.6458V27.5625Z" fill="#2C5F2D"/>
<path d="M14.5833 28.6042C14.5833 28.3166 14.8166 28.0834 15.1042 28.0834H18.2292C18.5168 28.0834 18.75 28.3166 18.75 28.6042V29.6459C18.75 29.9335 18.5168 30.1667 18.2292 30.1667H15.1042C14.8166 30.1667 14.5833 29.9335 14.5833 29.6459V28.6042Z" fill="#2C5F2D"/>
<path d="M22.9167 28.6041C22.9167 29.467 22.2171 30.1666 21.3542 30.1666C20.4912 30.1666 19.7917 29.467 19.7917 28.6041C19.7917 27.7412 20.4912 27.0416 21.3542 27.0416C22.2171 27.0416 22.9167 27.7412 22.9167 28.6041Z" fill="#2C5F2D"/>
</svg>
