<svg width="70" height="67" viewBox="0 0 70 67" fill="none" xmlns="http://www.w3.org/2000/svg">
<path d="M70 49C70 58.9411 61.9411 67 52 67L25 67C22.2386 67 20 64.7614 20 62L20 28C20 22.4772 24.4772 18 30 18L65 18C67.7614 18 70 20.2386 70 23L70 49Z" fill="#E8F5E9"/>
<g clip-path="url(#clip0_58_13)">
<path d="M31.9167 26.2691C32.0099 26.3008 32.1058 26.3158 32.1991 26.3158C32.5661 26.3158 32.9083 26.0852 33.0324 25.7183C33.3078 24.9105 34.1886 24.4767 34.9964 24.7504C36.7228 25.3346 38.6067 24.4081 39.1919 22.6808C39.3485 22.2215 39.1021 21.7208 38.6419 21.5642C38.18 21.4084 37.6819 21.6548 37.5253 22.115C37.2508 22.9237 36.37 23.3575 35.5613 23.0829C33.8375 22.5013 31.9519 23.4261 31.3658 25.1525C31.2101 25.6118 31.4565 26.1125 31.9167 26.2691Z" fill="#2C5F2D"/>
<path d="M33.9986 20.1379C34.0918 20.1695 34.1877 20.1845 34.281 20.1845C34.6479 20.1845 34.9902 19.9539 35.1143 19.587C35.2472 19.1955 35.5244 18.8787 35.8957 18.6957C36.267 18.5126 36.6867 18.4862 37.0783 18.6191C38.8047 19.2034 40.6878 18.2768 41.2738 16.5486C41.4304 16.0893 41.1832 15.5886 40.7238 15.432C40.2636 15.2736 39.7638 15.5226 39.6081 15.9828C39.3336 16.7924 38.4545 17.2262 37.6441 16.9516C36.8064 16.6674 35.9098 16.7255 35.1178 17.1171C34.3259 17.5078 33.7328 18.1844 33.4486 19.0212C33.2911 19.4814 33.5384 19.9812 33.9986 20.1379Z" fill="#2C5F2D"/>
<path d="M36.0787 14.0065C36.1729 14.0382 36.2679 14.0531 36.3621 14.0531C36.729 14.0531 37.0713 13.8226 37.1953 13.4557C37.3977 12.8591 38.0498 12.5379 38.6455 12.7403C39.3802 12.9893 40.1677 12.9383 40.8638 12.596C41.5589 12.2528 42.0789 11.6597 42.3288 10.925C42.4855 10.4657 42.2391 9.96501 41.7789 9.80838C41.3169 9.65087 40.8189 9.89901 40.6623 10.3592C40.5637 10.6487 40.3587 10.8828 40.085 11.0174C39.8114 11.152 39.5016 11.1723 39.2113 11.0728C37.696 10.5616 36.0426 11.3746 35.5288 12.889C35.373 13.3501 35.6185 13.8499 36.0787 14.0065Z" fill="#2C5F2D"/>
<path d="M42.4529 26.204C42.2998 26.0993 42.1273 26.0395 41.9513 26.0166C43.6997 20.3349 44.6589 14.7685 44.7961 9.46695C44.8393 7.79949 44.0244 5.57328 42.3816 4.54289C41.5932 4.04749 40.3015 3.6392 38.6243 4.50241C35.996 5.85837 34.1165 9.84708 32.6065 13.0535C32.5194 13.2383 32.4341 13.4187 32.3496 13.5973C32.0161 12.0636 31.0024 10.7516 29.5611 10.0671C29.2215 8.43392 27.9262 7.1545 26.2983 6.82277C26.2807 6.73126 26.2587 6.64151 26.2315 6.55088C25.8962 5.40521 24.8852 4.54289 23.7158 4.40386C23.0567 4.32554 22.4038 4.46193 21.8459 4.78839C21.3708 4.52353 20.8375 4.38274 20.2902 4.38274C18.76 4.38274 17.4745 5.45009 17.1392 6.87821C15.4665 7.33401 14.2398 8.86948 14.2266 10.654C12.3181 11.1467 10.9278 12.8714 10.9278 14.9225C10.9278 15.4663 11.0299 16.0048 11.2261 16.5125C10.7307 17.1241 10.4562 17.8896 10.4562 18.693C10.4562 19.1752 10.5556 19.6398 10.743 20.0692C9.86398 19.11 8.6268 18.326 7.2374 18.3771C6.75168 18.3929 6.36979 18.7986 6.38475 19.2843C6.39971 19.7603 6.7904 20.1369 7.2638 20.1369C7.29372 20.1378 7.32099 20.1352 7.34915 20.1352C8.17364 20.1352 8.94006 20.6807 9.49793 21.3143C8.10237 21.7164 6.41995 22.3711 5.63506 23.8511C5.16254 24.7442 5.1071 25.8397 5.42212 27.0945C5.26989 27.3488 5.1863 27.6444 5.20213 27.9595L6.69977 49.2422C6.83615 51.911 9.03597 54.0009 11.7074 54.0009H36.4078C39.0793 54.0009 41.2791 51.911 41.4146 49.2581L42.9501 27.2353C42.9501 27.23 42.9509 27.2247 42.9509 27.2194C42.9756 26.8138 42.7881 26.4345 42.4529 26.204ZM33.0676 16.1139C33.4161 15.4636 33.7962 14.6576 34.1983 13.8032C35.5208 10.9945 37.3335 7.14834 39.4304 6.06604C40.1959 5.67183 40.8549 5.66391 41.4463 6.0326C42.4661 6.67319 43.0662 8.28961 43.0372 9.42119C42.9025 14.6233 41.9522 20.0982 40.2117 25.6945C40.1545 25.8784 40.0278 26.2498 39.8474 26.7592L38.348 27.4253C38.3155 27.4403 38.2838 27.4561 38.253 27.4755C37.8201 27.7351 37.3344 27.8635 36.8486 27.8688C36.3629 27.8635 35.8781 27.7351 35.4452 27.4755L34.8178 27.0989C34.0962 26.666 33.2876 26.4495 32.4789 26.4495C32.4693 26.4495 32.4596 26.4513 32.449 26.4513C31.6307 26.446 30.8106 26.6598 30.0803 27.0989L29.4538 27.4755C29.1044 27.6849 28.7181 27.787 28.3275 27.831C28.3495 27.7544 28.375 27.6796 28.3978 27.604C28.6389 26.7848 28.8976 25.977 29.1687 25.1754C29.2716 24.8709 29.379 24.5682 29.4863 24.2664C29.7125 23.6302 29.9492 23.002 30.1938 22.3781C30.3029 22.0992 30.4094 21.8176 30.522 21.5413C31.2893 19.6697 32.1358 17.8544 33.0676 16.1139ZM21.8503 18.2011C21.9533 18.0691 22.0536 17.9406 22.1486 17.8157C22.1486 17.8139 22.1504 17.8122 22.1504 17.8122C22.2199 17.7198 22.2806 17.6239 22.3316 17.5279C22.5481 17.1205 22.5991 16.663 22.4988 16.216L26.1716 15.4126C26.1963 15.5252 26.2227 15.637 26.2649 15.7408C26.4295 16.1438 26.7233 16.4791 27.1325 16.7131C27.2663 16.787 27.4062 16.861 27.5505 16.9375C27.6693 17 27.7881 17.0651 27.9077 17.1302C27.9649 17.161 28.023 17.1918 28.0802 17.2235C28.1849 17.2824 28.2861 17.3476 28.3882 17.4118C28.4753 17.4655 28.5615 17.5209 28.646 17.5799C28.7437 17.6476 28.8369 17.7224 28.9302 17.7981C29.012 17.865 29.0903 17.938 29.1678 18.0128C29.2514 18.0946 29.3341 18.1782 29.4106 18.2697C29.5461 18.4316 29.6764 18.5997 29.7828 18.8012C29.4098 19.6248 29.0587 20.4651 28.719 21.3125C28.6662 21.4436 28.6099 21.5712 28.558 21.7023C27.5936 21.9469 26.6618 22.4045 25.5108 23.2237C24.0607 24.2541 22.981 24.5278 21.2018 24.2699L20.6677 21.8246C20.3052 20.1712 21.0909 19.1699 21.8503 18.2011ZM26.2139 12.8573C26.2367 12.8529 26.2596 12.8503 26.2825 12.8503C26.4488 12.8503 26.6046 12.9691 26.6406 13.1362C26.6688 13.2629 26.6213 13.3624 26.5896 13.4108C26.5588 13.4583 26.4893 13.5419 26.3635 13.5692L21.5028 14.633C21.3092 14.6752 21.1121 14.5468 21.0698 14.3549C21.0276 14.1622 21.1552 13.9642 21.3479 13.922L23.9305 13.3571L26.2139 12.8573ZM23.37 26.4671C23.3031 26.4715 23.2353 26.4733 23.1684 26.4803C22.6889 26.5287 22.2155 26.6501 21.7658 26.8525L21.5978 26.0826C21.8512 26.1037 22.1037 26.1248 22.3404 26.1248C23.875 26.1248 25.1104 25.6681 26.5306 24.658C26.9776 24.3394 27.3736 24.0983 27.7502 23.8986C27.6693 24.1283 27.5892 24.357 27.5109 24.5876C27.4546 24.753 27.3939 24.9158 27.3393 25.0821C27.0806 25.8652 26.8342 26.6545 26.6046 27.4509L26.0194 27.1007C25.2979 26.6677 24.4892 26.4513 23.6806 26.4513C23.67 26.4513 23.6586 26.453 23.648 26.453C23.5547 26.4513 23.4623 26.4618 23.37 26.4671ZM12.8452 17.3678L13.4215 16.8926L13.0475 16.2477C12.8135 15.8429 12.6894 15.3853 12.6894 14.9225C12.6894 13.497 13.806 12.3346 15.2315 12.2748L16.2998 12.2299L16.0507 11.1898C16.0085 11.0156 15.9874 10.844 15.9874 10.6812C15.9874 9.5479 16.8726 8.59318 18.0024 8.50695L18.8155 8.44535V7.56983C18.841 6.77878 19.493 6.14259 20.2911 6.14259C20.7504 6.14259 21.0795 6.35201 21.274 6.528L21.8908 7.08499L22.4821 6.50072C22.7531 6.23322 23.1253 6.10827 23.509 6.15227C23.9806 6.2077 24.4065 6.57551 24.5438 7.04803C24.5904 7.20642 24.6036 7.35953 24.5851 7.51527L24.4822 8.49815H25.473C26.7374 8.49815 27.7951 9.48631 27.8822 10.7481L27.9218 11.3262L28.4682 11.5181C29.8436 12.0011 30.7481 13.3025 30.7173 14.7588C30.7041 15.3809 30.5035 15.9802 30.1401 16.5055C29.5514 16.0057 28.917 15.6687 28.3838 15.388C28.2456 15.3149 28.1119 15.2445 27.9772 15.1697C27.9394 15.1486 27.8936 15.1117 27.8778 15.0193C27.8567 14.8926 27.9042 14.7403 28.0001 14.6286C28.3838 14.1833 28.5378 13.5762 28.4137 13.0034L28.3072 12.5185C28.2007 12.0293 27.9086 11.6113 27.4862 11.3403C27.0648 11.0702 26.5632 10.9795 26.0748 11.0869L25.839 11.1388C25.8364 11.1397 25.8337 11.1388 25.8311 11.1397L23.2485 11.7046L20.7284 12.2546C20.2401 12.361 19.8221 12.6523 19.5511 13.0755C19.2801 13.497 19.1903 13.9994 19.2968 14.4878L19.3496 14.7271V14.7298C19.3496 14.7298 19.3505 14.7315 19.3505 14.7333L19.4024 14.9718C19.53 15.5578 19.9374 16.0514 20.4908 16.289C20.6281 16.348 20.7425 16.4597 20.7821 16.5732C20.805 16.6383 20.7918 16.6718 20.7407 16.7562V16.7571C20.6536 16.8742 20.5595 16.9929 20.4636 17.1153C20.3668 17.2384 20.2665 17.3678 20.1644 17.5015C20.1301 17.5464 20.0975 17.5931 20.0632 17.6388C19.9902 17.7382 19.9171 17.8394 19.845 17.945C19.8054 18.0022 19.7675 18.0612 19.7288 18.121C19.6619 18.224 19.5977 18.3304 19.5344 18.4395C19.4974 18.5029 19.4613 18.5654 19.4261 18.6314C19.3601 18.7546 19.3003 18.8839 19.2413 19.0159C19.2158 19.0722 19.1885 19.1259 19.1657 19.1848C19.0882 19.3767 19.0196 19.5773 18.965 19.7885C18.9562 19.8219 18.9527 19.858 18.9448 19.8923C18.9026 20.0718 18.8683 20.2575 18.8463 20.4511C18.8375 20.5285 18.8357 20.6094 18.8304 20.6895C18.8234 20.7933 18.8102 20.8919 18.8102 21.0001C18.8067 20.9957 18.8031 20.9913 18.7996 20.9869C18.7873 20.9711 18.775 20.957 18.7635 20.9412C18.6104 20.7397 18.4573 20.554 18.3033 20.378C18.2549 20.3226 18.2057 20.2689 18.1564 20.2161C18.027 20.0762 17.8977 19.9451 17.7675 19.8219C17.7252 19.7823 17.683 19.7392 17.6399 19.7005C17.4753 19.5535 17.3099 19.4189 17.1436 19.2992C17.097 19.2658 17.0494 19.2376 17.0028 19.206C16.8779 19.1224 16.7529 19.0449 16.6262 18.9763C16.5646 18.9429 16.5039 18.9103 16.4414 18.8804C16.3103 18.8162 16.1783 18.7616 16.0455 18.7141C16.0015 18.6982 15.9575 18.6771 15.9135 18.663C15.7692 18.6173 15.624 18.5803 15.4779 18.5531C15.4612 18.5495 15.4445 18.5513 15.4277 18.5487C15.3978 18.5434 15.3688 18.5319 15.3389 18.5275C15.2368 18.5126 15.14 18.5187 15.0397 18.5117C14.9693 18.5073 14.8998 18.4923 14.8294 18.4923C14.8083 18.4923 14.7863 18.4976 14.7643 18.4976C14.6279 18.4994 14.4959 18.5152 14.363 18.5319C14.297 18.5407 14.231 18.546 14.1651 18.5583C13.9917 18.59 13.8236 18.634 13.6573 18.6868C13.6318 18.6947 13.6072 18.7009 13.5817 18.7097C13.1435 18.8584 12.7281 19.0687 12.3392 19.323C12.2591 19.125 12.2169 18.9121 12.2169 18.693C12.2178 18.1782 12.4466 17.6951 12.8452 17.3678ZM7.19165 24.6738C7.56385 23.9725 8.46754 23.4375 10.0364 22.9888C10.7703 22.7793 11.4514 22.3878 12.004 21.8598C12.2547 21.6196 12.4897 21.4163 12.7167 21.2316C13.4259 20.6552 14.0375 20.3419 14.5909 20.2707C14.6033 20.2689 14.6156 20.2672 14.6279 20.2663C14.803 20.2469 14.9728 20.2522 15.1374 20.2812C15.1805 20.2892 15.2245 20.3041 15.2685 20.3155C15.3503 20.3358 15.4313 20.356 15.5131 20.3886C15.5659 20.4088 15.6187 20.4396 15.6724 20.4643C15.7489 20.5012 15.8246 20.5346 15.9011 20.5813C15.961 20.6174 16.0208 20.664 16.0807 20.7054C16.1519 20.7555 16.2232 20.8013 16.2954 20.8593C16.3622 20.913 16.4291 20.9781 16.496 21.0388C16.5628 21.0996 16.6297 21.155 16.6966 21.2228C16.7705 21.2975 16.8453 21.3847 16.9201 21.4683C16.9808 21.536 17.0415 21.5985 17.1031 21.6715C17.1867 21.7718 17.2712 21.8862 17.3557 21.9971C17.4093 22.0675 17.4621 22.1308 17.5158 22.2056C17.6117 22.3394 17.7085 22.4881 17.8053 22.6359C17.8475 22.701 17.8907 22.7591 17.9329 22.826C18.0728 23.0468 18.2136 23.2818 18.3553 23.5317C19.0029 24.6747 19.2176 26.3633 18.936 27.8336C18.8894 27.8292 18.8436 27.8222 18.797 27.8152C18.4617 27.758 18.1388 27.6506 17.8449 27.4746L17.2175 27.098C16.496 26.6651 15.6873 26.4486 14.8787 26.4486C14.869 26.4486 14.8593 26.4504 14.8488 26.4504C14.0304 26.4451 13.2103 26.6589 12.48 27.098L12.1747 27.281C11.6423 27.6005 11.0457 27.7615 10.4491 27.7668C9.85166 27.7615 9.25595 27.6013 8.72359 27.281L7.5401 26.5701L7.53922 26.5692C7.38347 26.4768 7.2154 26.4134 7.04294 26.3818C6.90479 25.6857 6.95407 25.1226 7.19165 24.6738ZM39.6618 49.1516C39.5729 50.8833 38.1448 52.2401 36.4113 52.2401H11.7101C9.97573 52.2401 8.54849 50.8833 8.45874 49.1349L6.99454 28.3317L7.76008 28.791C8.58985 29.289 9.52169 29.5336 10.4509 29.5284C11.381 29.5336 12.3119 29.289 13.1417 28.791L13.447 28.608C13.88 28.3475 14.3648 28.219 14.8505 28.2138C15.3362 28.219 15.8211 28.3475 16.2549 28.608L16.8823 28.9846C17.676 29.4606 18.5752 29.6648 19.464 29.6164C19.5432 29.6128 19.6224 29.6128 19.7024 29.6058C19.7121 29.6049 19.7209 29.5996 19.7315 29.5988C20.3324 29.531 20.922 29.3418 21.4658 29.0321C21.5168 29.0136 21.5714 29.0127 21.6189 28.9846L22.2463 28.608C22.6792 28.3475 23.1641 28.219 23.6498 28.2138C24.1355 28.219 24.6203 28.3475 25.0541 28.608L25.6815 28.9846C26.3476 29.3832 27.0885 29.59 27.8338 29.6208C27.8488 29.6216 27.8646 29.6234 27.8796 29.6234C28.1365 29.6313 28.3934 29.6234 28.6486 29.5873C28.7947 29.5688 28.9364 29.5319 29.0798 29.4993C29.1493 29.4826 29.2188 29.4677 29.2875 29.4474C29.6781 29.3392 30.0609 29.1975 30.4173 28.9837L31.0447 28.6071C31.4776 28.3466 31.9624 28.2182 32.4481 28.2129C32.9339 28.2182 33.4187 28.3466 33.8525 28.6071L34.4799 28.9837C35.2067 29.4193 36.0224 29.6331 36.8372 29.6296C36.8504 29.6296 36.8645 29.6322 36.8777 29.6322C37.6679 29.6322 38.4589 29.4263 39.1681 29.0127L40.8945 28.2454C40.9315 28.2287 40.9579 28.197 40.9922 28.1759L41.1268 28.1161L39.6618 49.1516Z" fill="#2C5F2D"/>
<path d="M10.4808 41.8403H16.6403C17.126 41.8403 17.5202 41.447 17.5202 40.9604C17.5202 40.4738 17.126 40.0804 16.6403 40.0804H10.4808C9.9951 40.0804 9.60089 40.4738 9.60089 40.9604C9.60089 41.447 9.9951 41.8403 10.4808 41.8403Z" fill="#2C5F2D"/>
<path d="M10.4808 45.3599H18.4001C18.8859 45.3599 19.2801 44.9666 19.2801 44.48C19.2801 43.9934 18.8859 43.6001 18.4001 43.6001H10.4808C9.9951 43.6001 9.60089 43.9934 9.60089 44.48C9.60089 44.9666 9.9951 45.3599 10.4808 45.3599Z" fill="#2C5F2D"/>
<path d="M20.16 47.1199H10.4808C9.9951 47.1199 9.60089 47.5132 9.60089 47.9998C9.60089 48.4864 9.9951 48.8797 10.4808 48.8797H20.16C20.6457 48.8797 21.0399 48.4864 21.0399 47.9998C21.0399 47.5132 20.6457 47.1199 20.16 47.1199Z" fill="#2C5F2D"/>
<path d="M25.4396 47.1199H23.6797C23.194 47.1199 22.7998 47.5132 22.7998 47.9998C22.7998 48.4864 23.194 48.8797 23.6797 48.8797H25.4396C25.9253 48.8797 26.3195 48.4864 26.3195 47.9998C26.3195 47.5132 25.9253 47.1199 25.4396 47.1199Z" fill="#2C5F2D"/>
</g>
<defs>
<clipPath id="clip0_58_13">
<rect width="50" height="50" fill="white" transform="translate(0 4)"/>
</clipPath>
</defs>
</svg>
