<svg width="75" height="66" viewBox="0 0 75 66" fill="none" xmlns="http://www.w3.org/2000/svg">
<path d="M75 47.5C75 57.4411 66.9411 65.5 57 65.5L30 65.5C27.2386 65.5 25 63.2614 25 60.5L25 26.5C25 20.9772 29.4772 16.5 35 16.5L70 16.5C72.7614 16.5 75 18.7386 75 21.5L75 47.5Z" fill="#E8F5E9"/>
<path d="M26.4046 21.9454V20.4688H30.6221C32.4863 20.4688 34.2742 19.728 35.5924 18.4094C36.9106 17.0908 37.6511 15.3023 37.6511 13.4375V10.625C37.6511 10.2521 37.503 9.89437 37.2394 9.63065C36.9757 9.36693 36.6182 9.21877 36.2453 9.21877H30.6221C29.0999 9.21051 27.6174 9.7048 26.4046 10.625V6.40626C26.4046 6.03329 26.2565 5.67561 25.9929 5.41188C25.7292 5.14816 25.3716 5 24.9988 5C24.626 5 24.2684 5.14816 24.0047 5.41188C23.7411 5.67561 23.593 6.03329 23.593 6.40626V7.81251C22.3802 6.89229 20.8978 6.39799 19.3755 6.40626H13.7523C13.3794 6.40626 13.0219 6.55441 12.7582 6.81814C12.4946 7.08186 12.3465 7.43955 12.3465 7.81251V10.625C12.3465 12.4898 13.087 14.2783 14.4052 15.5969C15.7234 16.9155 17.5113 17.6563 19.3755 17.6563H23.593V21.9454C20.0044 22.3062 16.6918 24.0328 14.3401 26.7681C11.9885 29.5034 10.7777 33.0382 10.9583 36.6415C11.1388 40.2447 12.6969 43.6407 15.3102 46.127C17.9235 48.6134 21.3922 50 24.9988 50C28.6054 50 32.0741 48.6134 34.6874 46.127C37.3007 43.6407 38.8588 40.2447 39.0393 36.6415C39.2199 33.0382 38.0091 29.5034 35.6575 26.7681C33.3058 24.0328 29.9932 22.3062 26.4046 21.9454ZM30.6221 12.1016H34.8395V13.4375C34.8395 14.5564 34.3952 15.6295 33.6042 16.4207C32.8133 17.2118 31.7406 17.6563 30.6221 17.6563H26.4046V16.25C26.4046 15.1312 26.849 14.0581 27.6399 13.2669C28.4308 12.4758 29.5035 12.0313 30.6221 12.0313V12.1016ZM15.1581 10.625V9.21877H19.3755C20.4941 9.21877 21.5668 9.66324 22.3577 10.4544C23.1486 11.2456 23.593 12.3186 23.593 13.4375V14.8438H19.3755C18.257 14.8438 17.1843 14.3993 16.3934 13.6081C15.6024 12.817 15.1581 11.7439 15.1581 10.625ZM24.9988 47.1877C22.7744 47.1877 20.6 46.5279 18.7506 45.2917C16.9011 44.0555 15.4596 42.2985 14.6084 40.2428C13.7571 38.1871 13.5344 35.9251 13.9684 33.7428C14.4023 31.5606 15.4735 29.556 17.0463 27.9826C18.6192 26.4093 20.6231 25.3378 22.8047 24.9037C24.9863 24.4697 27.2476 24.6924 29.3027 25.5439C31.3577 26.3954 33.1142 27.8374 34.3499 29.6874C35.5857 31.5375 36.2453 33.7126 36.2453 35.9376C36.2453 38.9213 35.0604 41.7828 32.9513 43.8926C30.8422 46.0024 27.9816 47.1877 24.9988 47.1877Z" fill="#2C5F2D"/>
<path d="M24.9988 31.7189H27.8104C28.1833 31.7189 28.5409 31.5707 28.8045 31.307C29.0681 31.0433 29.2162 30.6856 29.2162 30.3126C29.2162 29.9397 29.0681 29.582 28.8045 29.3183C28.5409 29.0545 28.1833 28.9064 27.8104 28.9064H26.4046C26.4046 28.5334 26.2565 28.1757 25.9929 27.912C25.7292 27.6483 25.3716 27.5001 24.9988 27.5001C24.626 27.5001 24.2684 27.6483 24.0047 27.912C23.7411 28.1757 23.593 28.5334 23.593 28.9064V29.1595C22.6632 29.497 21.8816 30.1506 21.3848 31.0061C20.8879 31.8616 20.7075 32.8646 20.875 33.8397C21.0425 34.8148 21.5472 35.7 22.3011 36.3405C23.0549 36.9811 24.0098 37.3362 24.9988 37.3439C25.3716 37.3439 25.7292 37.4921 25.9929 37.7558C26.2565 38.0195 26.4046 38.3772 26.4046 38.7502C26.4046 39.1231 26.2565 39.4808 25.9929 39.7445C25.7292 40.0083 25.3716 40.1564 24.9988 40.1564H22.1872C21.8143 40.1564 21.4568 40.3046 21.1931 40.5683C20.9295 40.832 20.7814 41.1897 20.7814 41.5627C20.7814 41.9356 20.9295 42.2933 21.1931 42.5571C21.4568 42.8208 21.8143 42.9689 22.1872 42.9689H23.593C23.593 43.3419 23.7411 43.6996 24.0047 43.9633C24.2684 44.227 24.626 44.3752 24.9988 44.3752C25.3716 44.3752 25.7292 44.227 25.9929 43.9633C26.2565 43.6996 26.4046 43.3419 26.4046 42.9689V42.7158C27.3344 42.3783 28.116 41.7247 28.6128 40.8692C29.1097 40.0137 29.2901 39.0107 29.1226 38.0356C28.9551 37.0605 28.4504 36.1753 27.6966 35.5348C26.9427 34.8942 25.9879 34.5391 24.9988 34.5314C24.626 34.5314 24.2684 34.3832 24.0047 34.1195C23.7411 33.8558 23.593 33.4981 23.593 33.1251C23.593 32.7522 23.7411 32.3945 24.0047 32.1308C24.2684 31.867 24.626 31.7189 24.9988 31.7189Z" fill="#2C5F2D"/>
<path d="M10.533 15.2517L7.72133 12.4392C7.59064 12.3074 7.43515 12.2027 7.26384 12.1313C7.09253 12.06 6.90878 12.0232 6.7232 12.0232C6.53761 12.0232 6.35387 12.06 6.18255 12.1313C6.01124 12.2027 5.85576 12.3074 5.72507 12.4392L2.91344 15.2517C2.64872 15.5165 2.5 15.8756 2.5 16.2501C2.5 16.6246 2.64872 16.9838 2.91344 17.2486C3.17816 17.5134 3.5372 17.6621 3.91157 17.6621C4.28594 17.6621 4.64498 17.5134 4.9097 17.2486L5.31738 16.8267V20.4689C5.31738 20.8418 5.4655 21.1995 5.72914 21.4633C5.99278 21.727 6.35035 21.8751 6.7232 21.8751C7.09604 21.8751 7.45362 21.727 7.71726 21.4633C7.9809 21.1995 8.12901 20.8418 8.12901 20.4689V16.8267L8.5367 17.2486C8.66739 17.3804 8.82287 17.485 8.99419 17.5564C9.1655 17.6278 9.34925 17.6645 9.53483 17.6645C9.72041 17.6645 9.90416 17.6278 10.0755 17.5564C10.2468 17.485 10.4023 17.3804 10.533 17.2486C10.6647 17.1178 10.7693 16.9623 10.8407 16.7909C10.9121 16.6196 10.9488 16.4358 10.9488 16.2501C10.9488 16.0645 10.9121 15.8807 10.8407 15.7093C10.7693 15.5379 10.6647 15.3824 10.533 15.2517Z" fill="#2C5F2D"/>
<path d="M47.0842 23.6892L44.2725 20.8767C44.1418 20.7449 43.9864 20.6402 43.8151 20.5688C43.6437 20.4975 43.46 20.4607 43.2744 20.4607C43.0888 20.4607 42.9051 20.4975 42.7338 20.5688C42.5625 20.6402 42.407 20.7449 42.2763 20.8767L39.4646 23.6892C39.3336 23.8203 39.2296 23.9759 39.1587 24.1473C39.0877 24.3186 39.0512 24.5022 39.0512 24.6876C39.0512 25.0621 39.1999 25.4213 39.4646 25.6861C39.7294 25.9509 40.0884 26.0996 40.4628 26.0996C40.6481 26.0996 40.8317 26.0631 41.003 25.9921C41.1742 25.9212 41.3298 25.8172 41.4609 25.6861L41.8686 25.2642V28.9064C41.8686 29.2793 42.0167 29.637 42.2803 29.9008C42.544 30.1645 42.9016 30.3126 43.2744 30.3126C43.6473 30.3126 44.0048 30.1645 44.2685 29.9008C44.5321 29.637 44.6802 29.2793 44.6802 28.9064V25.2642L45.0879 25.6861C45.2186 25.8179 45.3741 25.9225 45.5454 25.9939C45.7167 26.0653 45.9005 26.102 46.086 26.102C46.2716 26.102 46.4554 26.0653 46.6267 25.9939C46.798 25.9225 46.9535 25.8179 47.0842 25.6861C47.2159 25.5553 47.3205 25.3998 47.3919 25.2284C47.4633 25.0571 47.5 24.8733 47.5 24.6876C47.5 24.502 47.4633 24.3182 47.3919 24.1468C47.3205 23.9754 47.2159 23.8199 47.0842 23.6892Z" fill="#2C5F2D"/>
</svg>
