<?xml version="1.0" encoding="UTF-8"?>
<svg id="katman_1" data-name="katman 1" xmlns="http://www.w3.org/2000/svg" viewBox="0 0 3000 3000">
  <defs>
    <style>
      .cls-1 {
        fill: #3b693c;
      }

      .cls-1, .cls-2 {
        stroke-width: 0px;
      }

      .cls-2 {
        fill: #8ac23b;
      }
    </style>
  </defs>
  <path class="cls-1" d="m2117.91,1486.25c0-210.81-148.68-339.98-341.21-339.98-124.81,0-230.14,55.13-291.63,144.33-45.84-97.82-145.27-144.33-286.9-144.33-104.79,0-210.81,28.03-282.7,79.2l68.23,132.84c47.53-37.79,119.42-60.95,188.88-60.95,102.35,0,151.12,47.54,151.12,129.17h-151.12c-170.86,0-255.33,58.8-276.22,148.2.09.06.14.14.23.2,28.54,27.25,61.43,37.1,99.51,48.51,34.56,10.34,62.67,31.29,83.67,62.29,4.15-8.22,9.03-16.05,14.67-23.47-11.8-12.86-18.14-29.22-18.14-48.05,0-43.87,28.05-76.79,116.99-76.79h130.41v37.94c14.04-3.21,28.08-6.42,42.14-9.63,22.01-5.01,44.76-11.6,66.19-20.8,18.77-8.08,36.54-18.17,51.89-30.98.72-.6,1.78-.48,2.35.2.29.35.43.78.41,1.21-3.13,42.06-11.9,81.52-26.34,118.34-7.1,18.13-15.58,35.64-25.44,52.49-26.02,44.5-59.89,79-99.03,104.81-4,2.64-8.06,5.19-12.17,7.64v12.96h190.08v-100.94c65.42,69.05,164.79,110.69,287.28,110.69s209.6-36.54,270.54-106.02l-101.14-109.66c-45.1,42.64-95.05,63.36-164.5,63.36-99.94,0-169.4-49.95-187.68-131.61h495.96c1.23-15.82,3.67-36.53,3.67-51.17Zm-502.07-59.72c13.41-84.07,75.56-136.47,162.07-136.47s147.45,53.64,160.86,136.47h-322.93Z"/>
  <path class="cls-2" d="m1486.68,1515.36c-3.13,42.06-11.9,81.52-26.34,118.34-7.1,18.13-15.58,35.64-25.44,52.49-26.02,44.5-59.89,79-99.03,104.81-4,2.64-8.06,5.19-12.17,7.64-63.39,37.94-139.31,54.57-217.83,55.09-.8,0-1.46-.64-1.49-1.44,0-.26.06-.48.17-.71,5.65-10.46,11.58-20.63,17.86-30.46,35.07-55.3,79.82-100.63,134.21-135.99.86-.55.77-.8-.23-.77-1.89.08-3.7.4-5.45,1-72.2,24.67-126.21,69.05-161.94,133.15-1.24,2.21-2.44,4.44-3.64,6.7v.03c-1.38,2.58-2.7,5.19-4.01,7.83-1.55,3.12-2.5,2.95-2.84-.52-.55-5.3-1.03-10.57-1.43-15.79-3.04-39.02-1.61-76.36,13.06-112.43.03-.06.06-.12.09-.18v-.02c4.58-11.21,10.4-21.38,17.25-30.61,35.56-48.1,98.51-70.97,155.47-84.18,20.2-4.67,40.46-9.34,60.75-13.98,14.04-3.21,28.08-6.42,42.14-9.63,22.01-5.01,44.76-11.6,66.19-20.8,18.77-8.08,36.54-18.17,51.89-30.98.72-.6,1.78-.48,2.35.2.29.35.43.78.41,1.21Z"/>
  <path class="cls-2" d="m1074.24,1717.82c-9.03,32.01-11.58,64.36-7.74,97.05.72,6.16,1.67,12.35,2.84,18.54.43,2.15-.29,2.61-2.09,1.35-2.12-1.49-4.21-3.04-6.28-4.65-8.88-6.79-17.16-14.32-25.38-21.83-.66-.6-1.32-1.2-1.95-1.83-18.74-17.51-33.27-37.37-43.61-59.52-.92-1.94-1.12-1.89-.63.23,4.24,18.23,10.89,34.96,20,50.15,6.33,10.71,13.89,20.66,22.69,29.85,3.3,3.44,7.25,6.42,10.75,9.77,1.89,1.87,1.63,2.27-.84,1.26-105.07-44.06-163.49-134.41-159.74-249.88.03-.8.66-1.4,1.46-1.38.35,0,.69.15.95.38,2.69,2.58,5.42,4.98,8.17,7.25,29.08,24.38,61.6,34.35,98.31,45.35,33.46,10,59.85,30.98,79.16,62.87.43.69.84,1.37,1.24,2.03,2.37,4.04,4.15,7.8,2.69,13.01Z"/>
</svg>